<svg id="visual" viewBox="0 0 900 600" width="900" height="600" xmlns="http://www.w3.org/2000/svg" xmlns:xlink="http://www.w3.org/1999/xlink" version="1.1"><path d="M0 97L13.7 88C27.3 79 54.7 61 82 63C109.3 65 136.7 87 163.8 93C191 99 218 89 245.2 80C272.3 71 299.7 63 327 57C354.3 51 381.7 47 409 56C436.3 65 463.7 87 491 89C518.3 91 545.7 73 573 68C600.3 63 627.7 71 654.8 75C682 79 709 79 736.2 85C763.3 91 790.7 103 818 99C845.3 95 872.7 75 886.3 65L900 55L900 0L886.3 0C872.7 0 845.3 0 818 0C790.7 0 763.3 0 736.2 0C709 0 682 0 654.8 0C627.7 0 600.3 0 573 0C545.7 0 518.3 0 491 0C463.7 0 436.3 0 409 0C381.7 0 354.3 0 327 0C299.7 0 272.3 0 245.2 0C218 0 191 0 163.8 0C136.7 0 109.3 0 82 0C54.7 0 27.3 0 13.7 0L0 0Z" fill="#6198ff"></path><path d="M0 199L13.7 184C27.3 169 54.7 139 82 133C109.3 127 136.7 145 163.8 149C191 153 218 143 245.2 139C272.3 135 299.7 137 327 131C354.3 125 381.7 111 409 121C436.3 131 463.7 165 491 175C518.3 185 545.7 171 573 162C600.3 153 627.7 149 654.8 142C682 135 709 125 736.2 136C763.3 147 790.7 179 818 180C845.3 181 872.7 151 886.3 136L900 121L900 53L886.3 63C872.7 73 845.3 93 818 97C790.7 101 763.3 89 736.2 83C709 77 682 77 654.8 73C627.7 69 600.3 61 573 66C545.7 71 518.3 89 491 87C463.7 85 436.3 63 409 54C381.7 45 354.3 49 327 55C299.7 61 272.3 69 245.2 78C218 87 191 97 163.8 91C136.7 85 109.3 63 82 61C54.7 59 27.3 77 13.7 86L0 95Z" fill="#3c80ff"></path><path d="M0 313L13.7 317C27.3 321 54.7 329 82 341C109.3 353 136.7 369 163.8 374C191 379 218 373 245.2 352C272.3 331 299.7 295 327 291C354.3 287 381.7 315 409 322C436.3 329 463.7 315 491 313C518.3 311 545.7 321 573 340C600.3 359 627.7 387 654.8 371C682 355 709 295 736.2 302C763.3 309 790.7 383 818 395C845.3 407 872.7 357 886.3 332L900 307L900 119L886.3 134C872.7 149 845.3 179 818 178C790.7 177 763.3 145 736.2 134C709 123 682 133 654.8 140C627.7 147 600.3 151 573 160C545.7 169 518.3 183 491 173C463.7 163 436.3 129 409 119C381.7 109 354.3 123 327 129C299.7 135 272.3 133 245.2 137C218 141 191 151 163.8 147C136.7 143 109.3 125 82 131C54.7 137 27.3 167 13.7 182L0 197Z" fill="#0066ff"></path><path d="M0 535L13.7 531C27.3 527 54.7 519 82 512C109.3 505 136.7 499 163.8 497C191 495 218 497 245.2 497C272.3 497 299.7 495 327 502C354.3 509 381.7 525 409 519C436.3 513 463.7 485 491 474C518.3 463 545.7 469 573 479C600.3 489 627.7 503 654.8 508C682 513 709 509 736.2 515C763.3 521 790.7 537 818 530C845.3 523 872.7 493 886.3 478L900 463L900 305L886.3 330C872.7 355 845.3 405 818 393C790.7 381 763.3 307 736.2 300C709 293 682 353 654.8 369C627.7 385 600.3 357 573 338C545.7 319 518.3 309 491 311C463.7 313 436.3 327 409 320C381.7 313 354.3 285 327 289C299.7 293 272.3 329 245.2 350C218 371 191 377 163.8 372C136.7 367 109.3 351 82 339C54.7 327 27.3 319 13.7 315L0 311Z" fill="#0059dd"></path><path d="M0 601L13.7 601C27.3 601 54.7 601 82 601C109.3 601 136.7 601 163.8 601C191 601 218 601 245.2 601C272.3 601 299.7 601 327 601C354.3 601 381.7 601 409 601C436.3 601 463.7 601 491 601C518.3 601 545.7 601 573 601C600.3 601 627.7 601 654.8 601C682 601 709 601 736.2 601C763.3 601 790.7 601 818 601C845.3 601 872.7 601 886.3 601L900 601L900 461L886.3 476C872.7 491 845.3 521 818 528C790.7 535 763.3 519 736.2 513C709 507 682 511 654.8 506C627.7 501 600.3 487 573 477C545.7 467 518.3 461 491 472C463.7 483 436.3 511 409 517C381.7 523 354.3 507 327 500C299.7 493 272.3 495 245.2 495C218 495 191 493 163.8 495C136.7 497 109.3 503 82 510C54.7 517 27.3 525 13.7 529L0 533Z" fill="#004cbb"></path></svg>