<svg id="visual" viewBox="0 0 900 600" width="900" height="600" xmlns="http://www.w3.org/2000/svg" xmlns:xlink="http://www.w3.org/1999/xlink" version="1.1"><rect x="0" y="0" width="900" height="600" fill="#000000"></rect><path d="M0 387L21.5 397.3C43 407.7 86 428.3 128.8 426.7C171.7 425 214.3 401 257.2 389.5C300 378 343 379 385.8 376.8C428.7 374.7 471.3 369.3 514.2 376.7C557 384 600 404 642.8 412.5C685.7 421 728.3 418 771.2 411.7C814 405.3 857 395.7 878.5 390.8L900 386L900 601L878.5 601C857 601 814 601 771.2 601C728.3 601 685.7 601 642.8 601C600 601 557 601 514.2 601C471.3 601 428.7 601 385.8 601C343 601 300 601 257.2 601C214.3 601 171.7 601 128.8 601C86 601 43 601 21.5 601L0 601Z" fill="#fa7268"></path><path d="M0 460L21.5 462.7C43 465.3 86 470.7 128.8 464.3C171.7 458 214.3 440 257.2 435.7C300 431.3 343 440.7 385.8 447.5C428.7 454.3 471.3 458.7 514.2 457.7C557 456.7 600 450.3 642.8 452.3C685.7 454.3 728.3 464.7 771.2 470.5C814 476.3 857 477.7 878.5 478.3L900 479L900 601L878.5 601C857 601 814 601 771.2 601C728.3 601 685.7 601 642.8 601C600 601 557 601 514.2 601C471.3 601 428.7 601 385.8 601C343 601 300 601 257.2 601C214.3 601 171.7 601 128.8 601C86 601 43 601 21.5 601L0 601Z" fill="#ef5f67"></path><path d="M0 442L21.5 451C43 460 86 478 128.8 478.7C171.7 479.3 214.3 462.7 257.2 459C300 455.3 343 464.7 385.8 467.8C428.7 471 471.3 468 514.2 468.3C557 468.7 600 472.3 642.8 467.8C685.7 463.3 728.3 450.7 771.2 456.2C814 461.7 857 485.3 878.5 497.2L900 509L900 601L878.5 601C857 601 814 601 771.2 601C728.3 601 685.7 601 642.8 601C600 601 557 601 514.2 601C471.3 601 428.7 601 385.8 601C343 601 300 601 257.2 601C214.3 601 171.7 601 128.8 601C86 601 43 601 21.5 601L0 601Z" fill="#e34c67"></path><path d="M0 509L21.5 509.7C43 510.3 86 511.7 128.8 509.2C171.7 506.7 214.3 500.3 257.2 496.5C300 492.7 343 491.3 385.8 495.7C428.7 500 471.3 510 514.2 512.7C557 515.3 600 510.7 642.8 514.3C685.7 518 728.3 530 771.2 529.3C814 528.7 857 515.3 878.5 508.7L900 502L900 601L878.5 601C857 601 814 601 771.2 601C728.3 601 685.7 601 642.8 601C600 601 557 601 514.2 601C471.3 601 428.7 601 385.8 601C343 601 300 601 257.2 601C214.3 601 171.7 601 128.8 601C86 601 43 601 21.5 601L0 601Z" fill="#d53867"></path><path d="M0 553L21.5 552.3C43 551.7 86 550.3 128.8 551.8C171.7 553.3 214.3 557.7 257.2 554.7C300 551.7 343 541.3 385.8 539.7C428.7 538 471.3 545 514.2 544C557 543 600 534 642.8 534.5C685.7 535 728.3 545 771.2 549.2C814 553.3 857 551.7 878.5 550.8L900 550L900 601L878.5 601C857 601 814 601 771.2 601C728.3 601 685.7 601 642.8 601C600 601 557 601 514.2 601C471.3 601 428.7 601 385.8 601C343 601 300 601 257.2 601C214.3 601 171.7 601 128.8 601C86 601 43 601 21.5 601L0 601Z" fill="#c62368"></path></svg>