<svg width="900" height="229" viewBox="0 0 900 229" fill="none" xmlns="http://www.w3.org/2000/svg">
<path d="M0.000488281 13.0742L21.5005 24.3745C43.0005 34.7745 86.0005 55.3745 128.8 53.7745C171.7 52.0745 214.3 28.0745 257.201 16.5745C300 5.07448 343 6.07446 385.8 3.87446C428.7 1.77446 471.3 -3.62551 514.201 3.77449C557 11.0745 600 31.0745 642.8 39.5745C685.7 48.0745 728.3 45.0745 771.201 38.7745C814 32.3745 857 22.7745 878.5 17.8745L900 13.0745V228.074H878.5C857 228.074 814 228.074 771.201 228.074C728.3 228.074 685.7 228.074 642.8 228.074C600 228.074 557 228.074 514.201 228.074C471.3 228.074 428.7 228.074 385.8 228.074C343 228.074 300 228.074 257.201 228.074C214.3 228.074 171.7 228.074 128.8 228.074C86.0005 228.074 43.0005 228.074 21.5005 228.074H0.000488281V13.0742Z" fill="#FA7268"/>
<path d="M0.000488281 106C0.000488281 106 14.5005 106.5 37.0005 103.5C59.5005 100.5 86.0005 97.7744 128.8 91.3744C171.7 85.0744 214.3 67.0744 257.201 62.7744C300 58.3744 343 67.7744 385.8 74.5744C428.7 81.3744 471.3 85.7744 514.201 84.7744C557 83.7744 600 77.3744 642.8 79.3744C685.7 81.3744 728.3 91.7744 771.201 97.5744C814 103.374 857 104.774 878.5 105.374L900 106.074V228.074H878.5C857 228.074 814 228.074 771.201 228.074C728.3 228.074 685.7 228.074 642.8 228.074C600 228.074 557 228.074 514.201 228.074C471.3 228.074 428.7 228.074 385.8 228.074C343 228.074 300 228.074 257.201 228.074C214.3 228.074 171.7 228.074 128.8 228.074C86.0005 228.074 43.0005 228.074 21.5005 228.074H0.000488281V106Z" fill="#EF5F67"/>
<path d="M0.000488281 135C0.000488281 135 44.0005 111.5 65.5005 120.5C87.0005 129.5 86.0005 105.074 128.8 105.774C171.7 106.374 214.3 89.7745 257.201 86.0745C300 82.3745 343 91.7744 385.8 94.8744C428.7 98.0744 471.3 95.0744 514.201 95.3744C557 95.7744 600 99.3744 642.8 94.8744C685.7 90.3744 728.3 77.7745 771.201 83.2745C814 88.7745 857 112.374 878.5 124.274L900 136.074V228.074H878.5C857 228.074 814 228.074 771.201 228.074C728.3 228.074 685.7 228.074 642.8 228.074C600 228.074 557 228.074 514.201 228.074C471.3 228.074 428.7 228.074 385.8 228.074C343 228.074 300 228.074 257.201 228.074C214.3 228.074 171.7 228.074 128.8 228.074C86.0005 228.074 43.0005 228.074 21.5005 228.074H0.000488281V135Z" fill="#E34C67"/>
<path d="M0.000483352 129C0.00118861 128.5 2.00048 134 21.5005 136.775C41.0005 139.549 86.0005 138.775 128.801 136.275C171.701 133.775 214.301 127.375 257.201 123.575C300.001 119.775 343.001 118.375 385.801 122.775C428.701 127.075 471.3 137.075 514.201 139.775C557 142.375 600 137.775 642.8 141.375C685.7 145.075 728.3 157.075 771.201 156.375C814 155.775 857 142.375 878.5 135.775L900 129.075V228.074H878.5C857 228.074 814 228.074 771.201 228.074C728.3 228.074 685.7 228.074 642.8 228.074C600 228.074 557 228.074 514.201 228.074C471.3 228.074 428.701 228.074 385.801 228.074C343.001 228.074 300.001 228.074 257.201 228.074C214.301 228.074 171.701 228.074 128.801 228.074C86.0005 228.074 43.0005 228.074 21.5005 228.074H0.000483352C0.000483352 228.074 -0.000221907 129.5 0.000483352 129Z" fill="#D53867"/>
<path d="M0.000488281 177.5C0.000641741 175.683 70.4248 178.317 70.4248 178.317C91.7468 177.722 92.7415 177.696 135.187 179.185C177.732 180.673 219.979 185.039 262.524 182.062C304.969 179.085 347.613 168.767 390.059 167.179C432.604 165.493 474.85 172.438 517.395 171.446C559.841 170.453 602.485 161.524 644.93 162.02C687.475 162.516 729.722 172.438 772.267 176.605C814.713 180.673 857.357 179.085 878.679 178.192L900.001 177.399V228H878.679C857.357 228 814.713 228 772.267 228C729.722 228 687.475 228 644.93 228C602.485 228 559.841 228 517.395 228C474.85 228 432.604 228 390.059 228C347.613 228 304.969 228 262.524 228C219.979 228 177.732 228 135.187 228C92.7415 228 50.0974 228 28.7755 228H0.000488281C0.000488281 228 0.000334822 179.317 0.000488281 177.5Z" fill="#C62368"/>
</svg>
