<?xml version="1.0" standalone="no"?>
<!DOCTYPE svg PUBLIC "-//W3C//DTD SVG 20010904//EN"
 "http://www.w3.org/TR/2001/REC-SVG-20010904/DTD/svg10.dtd">
<svg version="1.0" xmlns="http://www.w3.org/2000/svg"
 width="700.000000pt" height="700.000000pt" viewBox="0 0 700.000000 700.000000"
 preserveAspectRatio="xMidYMid meet">
<metadata>
Created by potrace 1.14, written by Peter Selinger 2001-2017
</metadata>
<g transform="translate(0.000000,700.000000) scale(0.100000,-0.100000)"
fill="#000000" stroke="none">
<path d="M999 6996 c-2 -2 -24 -6 -49 -9 -25 -3 -79 -15 -120 -26 -368 -99
-657 -373 -775 -735 -26 -82 -31 -102 -45 -196 -5 -30 -9 -1173 -9 -2540 0
-2358 1 -2490 18 -2575 22 -105 52 -197 91 -276 31 -62 81 -151 90 -159 3 -3
24 -30 48 -61 115 -152 317 -293 513 -359 79 -27 99 -32 204 -49 38 -6 967
-10 2535 -10 2688 0 2540 -3 2722 54 393 122 695 471 762 881 13 77 15 434 15
2564 0 1560 -4 2497 -10 2535 -54 330 -219 595 -484 773 -147 99 -281 151
-475 182 -52 8 -5022 14 -5031 6z"/>
</g>
</svg>
