<svg width="800" height="800" viewBox="0 0 800 800" fill="none" xmlns="http://www.w3.org/2000/svg">
<path fill-rule="evenodd" clip-rule="evenodd" d="M733.333 216.667C733.333 133.824 666.176 66.6667 583.333 66.6667H400C326.363 66.6667 266.667 126.362 266.667 200V233.333C266.667 251.743 281.59 266.667 300 266.667C318.41 266.667 333.333 251.743 333.333 233.333V200C333.333 163.181 363.18 133.333 400 133.333H583.333C629.357 133.333 666.667 170.643 666.667 216.667V583.333C666.667 629.357 629.357 666.667 583.333 666.667H400C363.18 666.667 333.333 636.82 333.333 600V566.667C333.333 548.257 318.41 533.333 300 533.333C281.59 533.333 266.667 548.257 266.667 566.667V600C266.667 673.637 326.363 733.333 400 733.333H583.333C666.176 733.333 733.333 666.177 733.333 583.333V216.667ZM190.237 276.43C177.22 263.412 156.113 263.412 143.097 276.43L43.0966 376.43C30.0799 389.447 30.0799 410.553 43.0966 423.57L143.097 523.57C156.113 536.587 177.22 536.587 190.237 523.57C203.253 510.553 203.253 489.447 190.237 476.43L147.14 433.333H433.333C451.743 433.333 466.667 418.41 466.667 400C466.667 381.59 451.743 366.667 433.333 366.667H147.14L190.237 323.57C203.253 310.553 203.253 289.447 190.237 276.43Z" fill="#ECEDEE"/>
</svg>
