<svg width="298" height="139" viewBox="0 0 298 139" fill="none" xmlns="http://www.w3.org/2000/svg">
<path d="M84 90H71.136V61.776C71.136 57.808 70.432 54.896 69.024 53.04C67.68 51.12 65.792 50.16 63.36 50.16C60.864 50.16 58.464 51.152 56.16 53.136C53.92 55.056 52.32 57.584 51.36 60.72V90H38.496V61.776C38.496 57.744 37.792 54.8 36.384 52.944C35.04 51.088 33.152 50.16 30.72 50.16C28.224 50.16 25.824 51.12 23.52 53.04C21.28 54.96 19.68 57.488 18.72 60.624V90H5.856V39.696H17.472V49.008C19.392 45.744 21.952 43.248 25.152 41.52C28.352 39.728 32.032 38.832 36.192 38.832C40.352 38.832 43.584 39.856 45.888 41.904C48.256 43.952 49.76 46.48 50.4 49.488C52.448 46.032 55.04 43.408 58.176 41.616C61.376 39.76 64.96 38.832 68.928 38.832C72.064 38.832 74.592 39.408 76.512 40.56C78.496 41.648 80.032 43.152 81.12 45.072C82.208 46.928 82.944 49.04 83.328 51.408C83.776 53.776 84 56.176 84 58.608V90ZM217.589 90V52.176H210.965V42.384H217.589V39.312C217.589 35.152 218.261 31.568 219.605 28.56C221.013 25.488 222.965 23.12 225.461 21.456C228.021 19.792 230.997 18.96 234.389 18.96C236.437 18.96 238.485 19.216 240.533 19.728C242.645 20.24 244.725 20.976 246.773 21.936L244.181 31.632C243.221 31.12 242.101 30.704 240.821 30.384C239.541 30 238.325 29.808 237.173 29.808C234.997 29.808 233.333 30.576 232.181 32.112C231.029 33.648 230.453 35.888 230.453 38.832V42.384H242.741V52.176H230.453V90H217.589ZM252.064 99.792C253.216 100.048 254.272 100.272 255.232 100.464C256.256 100.656 257.12 100.752 257.824 100.752C259.04 100.752 260.032 100.432 260.8 99.792C261.632 99.216 262.432 98.128 263.2 96.528C263.968 94.992 264.768 92.816 265.6 90L245.728 39.696H259.072L272.608 76.848L284.512 39.696H296.801L275.68 99.984C274.912 102.224 273.728 104.24 272.128 106.032C270.592 107.888 268.64 109.328 266.272 110.352C263.968 111.44 261.376 111.984 258.496 111.984C257.472 111.984 256.448 111.888 255.424 111.696C254.4 111.568 253.28 111.312 252.064 110.928V99.792Z" fill="white"/>
<path d="M119.392 90.96C115.296 90.96 111.616 90.288 108.352 88.944C105.088 87.536 102.304 85.616 99.9997 83.184C97.7597 80.752 96.0317 77.968 94.8157 74.832C93.5997 71.696 92.9917 68.4 92.9917 64.944C92.9917 61.424 93.5997 58.096 94.8157 54.96C96.0317 51.824 97.7597 49.04 99.9997 46.608C102.304 44.176 105.088 42.288 108.352 40.944C111.616 39.536 115.296 38.832 119.392 38.832C123.488 38.832 127.136 39.536 130.336 40.944C133.6 42.288 136.384 44.176 138.688 46.608C140.992 49.04 142.72 51.824 143.872 54.96C145.088 58.096 145.696 61.424 145.696 64.944C145.696 68.4 145.088 71.696 143.872 74.832C142.72 77.968 140.992 80.752 138.688 83.184C136.448 85.616 133.696 87.536 130.432 88.944C127.168 90.288 123.488 90.96 119.392 90.96ZM106.24 64.944C106.24 67.888 106.816 70.512 107.968 72.816C109.12 75.056 110.688 76.816 112.672 78.096C114.656 79.376 116.896 80.016 119.392 80.016C121.824 80.016 124.032 79.376 126.016 78.096C128 76.752 129.568 74.96 130.72 72.72C131.936 70.416 132.544 67.792 132.544 64.848C132.544 61.968 131.936 59.376 130.72 57.072C129.568 54.768 128 52.976 126.016 51.696C124.032 50.416 121.824 49.776 119.392 49.776C116.896 49.776 114.656 50.448 112.672 51.792C110.688 53.072 109.12 54.864 107.968 57.168C106.816 59.408 106.24 62 106.24 64.944ZM178.57 90.96C174.474 90.96 170.794 90.288 167.53 88.944C164.266 87.536 161.482 85.616 159.178 83.184C156.938 80.752 155.21 77.968 153.994 74.832C152.778 71.696 152.17 68.4 152.17 64.944C152.17 61.424 152.778 58.096 153.994 54.96C155.21 51.824 156.938 49.04 159.178 46.608C161.482 44.176 164.266 42.288 167.53 40.944C170.794 39.536 174.474 38.832 178.57 38.832C182.666 38.832 186.314 39.536 189.515 40.944C192.779 42.288 195.562 44.176 197.866 46.608C200.17 49.04 201.899 51.824 203.051 54.96C204.267 58.096 204.875 61.424 204.875 64.944C204.875 68.4 204.267 71.696 203.051 74.832C201.899 77.968 200.17 80.752 197.866 83.184C195.626 85.616 192.874 87.536 189.61 88.944C186.346 90.288 182.666 90.96 178.57 90.96ZM165.418 64.944C165.418 67.888 165.994 70.512 167.146 72.816C168.298 75.056 169.866 76.816 171.85 78.096C173.834 79.376 176.074 80.016 178.57 80.016C181.002 80.016 183.21 79.376 185.194 78.096C187.179 76.752 188.747 74.96 189.899 72.72C191.115 70.416 191.723 67.792 191.723 64.848C191.723 61.968 191.115 59.376 189.899 57.072C188.747 54.768 187.179 52.976 185.194 51.696C183.21 50.416 181.002 49.776 178.57 49.776C176.074 49.776 173.834 50.448 171.85 51.792C169.866 53.072 168.298 54.864 167.146 57.168C165.994 59.408 165.418 62 165.418 64.944Z" fill="#FFD131"/>
<path d="M98 100C144.731 145 199 100 199 100" stroke="white" stroke-width="3" stroke-linecap="round"/>
</svg>
